<svg xmlns="http://www.w3.org/2000/svg" xmlns:xlink="http://www.w3.org/1999/xlink" contentStyleType="text/css" data-diagram-type="SEQUENCE" height="921px" preserveAspectRatio="none" style="width:1634px;height:921px;background:#FFFFFF;" version="1.1" viewBox="0 0 1634 921" width="1634px" zoomAndPan="magnify"><title>Sequence - Obten&#231;&#227;o de analytics com Factory Method</title><defs/><g><text fill="#000000" font-family="sans-serif" font-size="14" font-weight="bold" lengthAdjust="spacing" textLength="434.499" x="598.9841" y="27.9951">Sequence - Obten&#231;&#227;o de analytics com Factory Method</text><rect fill="none" height="468.2109" style="stroke:#000000;stroke-width:1.5;" width="1104.5313" x="411.2505" y="282.3906"/><rect fill="none" height="379.8125" style="stroke:#000000;stroke-width:1.5;" width="1084.5313" x="421.2505" y="306.5234"/><rect fill="none" height="308.9375" style="stroke:#000000;stroke-width:1.5;" width="1064.5313" x="431.2505" y="370.3984"/><g><title>Inven.RA</title><rect fill="#000000" fill-opacity="0.00000" height="722.4063" width="8" x="35.8452" y="118.5938"/><line style="stroke:#181818;stroke-width:0.5;stroke-dasharray:5,5;" x1="39" x2="39" y1="118.5938" y2="841"/></g><g><title>MindscapeController</title><rect fill="#000000" fill-opacity="0.00000" height="722.4063" width="8" x="256.0005" y="118.5938"/><line style="stroke:#181818;stroke-width:0.5;stroke-dasharray:5,5;" x1="259.0146" x2="259.0146" y1="118.5938" y2="841"/></g><g><title>AnalyticsService</title><rect fill="#000000" fill-opacity="0.00000" height="722.4063" width="8" x="501.9082" y="118.5938"/><line style="stroke:#181818;stroke-width:0.5;stroke-dasharray:5,5;" x1="505.2505" x2="505.2505" y1="118.5938" y2="841"/></g><g><title>AnalyticsCalculatorFactory</title><rect fill="#000000" fill-opacity="0.00000" height="722.4063" width="8" x="765.7988" y="118.5938"/><line style="stroke:#181818;stroke-width:0.5;stroke-dasharray:5,5;" x1="769.2524" x2="769.2524" y1="118.5938" y2="841"/></g><g><title>IdeasGeneratedCalculator</title><rect fill="#000000" fill-opacity="0.00000" height="722.4063" width="8" x="974.7793" y="118.5938"/><line style="stroke:#181818;stroke-width:0.5;stroke-dasharray:5,5;" x1="978.3452" x2="978.3452" y1="118.5938" y2="841"/></g><g><title>TimeSpentCalculator</title><rect fill="#000000" fill-opacity="0.00000" height="722.4063" width="8" x="1163.481" y="118.5938"/><line style="stroke:#181818;stroke-width:0.5;stroke-dasharray:5,5;" x1="1167.2134" x2="1167.2134" y1="118.5938" y2="841"/></g><g><title>ReflectionSubmittedCalculator</title><rect fill="#000000" fill-opacity="0.00000" height="722.4063" width="8" x="1367.7651" y="118.5938"/><line style="stroke:#181818;stroke-width:0.5;stroke-dasharray:5,5;" x1="1371.7485" x2="1371.7485" y1="118.5938" y2="841"/></g><g><title>StudentAnalytics</title><rect fill="#000000" fill-opacity="0.00000" height="722.4063" width="8" x="1558.1245" y="118.5938"/><line style="stroke:#181818;stroke-width:0.5;stroke-dasharray:5,5;" x1="1561.7817" x2="1561.7817" y1="118.5938" y2="841"/></g><g class="participant participant-head" data-participant="InvenRA"><text fill="#000000" font-family="sans-serif" font-size="14" lengthAdjust="spacing" textLength="63.6904" x="5" y="115.292">Inven!RA</text><ellipse cx="39.8452" cy="50.7969" fill="#E2E2F0" rx="8" ry="8" style="stroke:#181818;stroke-width:0.5;"/><path d="M39.8452,58.7969 L39.8452,85.7969 M26.8452,66.7969 L52.8452,66.7969 M39.8452,85.7969 L26.8452,100.7969 M39.8452,85.7969 L52.8452,100.7969" fill="none" style="stroke:#181818;stroke-width:0.5;"/></g><g class="participant participant-tail" data-participant="InvenRA"><text fill="#000000" font-family="sans-serif" font-size="14" lengthAdjust="spacing" textLength="63.6904" x="5" y="852.9951">Inven!RA</text><ellipse cx="39.8452" cy="864.7969" fill="#E2E2F0" rx="8" ry="8" style="stroke:#181818;stroke-width:0.5;"/><path d="M39.8452,872.7969 L39.8452,899.7969 M26.8452,880.7969 L52.8452,880.7969 M39.8452,899.7969 L26.8452,914.7969 M39.8452,899.7969 L52.8452,914.7969" fill="none" style="stroke:#181818;stroke-width:0.5;"/></g><g class="participant participant-head" data-participant="C"><rect fill="#E2E2F0" height="30.2969" rx="2.5" ry="2.5" style="stroke:#181818;stroke-width:0.5;" width="157.9717" x="181.0146" y="87.2969"/><text fill="#000000" font-family="sans-serif" font-size="14" lengthAdjust="spacing" textLength="143.9717" x="188.0146" y="107.292">MindscapeController</text></g><g class="participant participant-tail" data-participant="C"><rect fill="#E2E2F0" height="30.2969" rx="2.5" ry="2.5" style="stroke:#181818;stroke-width:0.5;" width="157.9717" x="181.0146" y="840"/><text fill="#000000" font-family="sans-serif" font-size="14" lengthAdjust="spacing" textLength="143.9717" x="188.0146" y="859.9951">MindscapeController</text></g><g class="participant participant-head" data-participant="S"><rect fill="#E2E2F0" height="30.2969" rx="2.5" ry="2.5" style="stroke:#181818;stroke-width:0.5;" width="129.3154" x="441.2505" y="87.2969"/><text fill="#000000" font-family="sans-serif" font-size="14" lengthAdjust="spacing" textLength="115.3154" x="448.2505" y="107.292">AnalyticsService</text></g><g class="participant participant-tail" data-participant="S"><rect fill="#E2E2F0" height="30.2969" rx="2.5" ry="2.5" style="stroke:#181818;stroke-width:0.5;" width="129.3154" x="441.2505" y="840"/><text fill="#000000" font-family="sans-serif" font-size="14" lengthAdjust="spacing" textLength="115.3154" x="448.2505" y="859.9951">AnalyticsService</text></g><g class="participant participant-head" data-participant="F"><rect fill="#E2E2F0" height="30.2969" rx="2.5" ry="2.5" style="stroke:#181818;stroke-width:0.5;" width="201.0928" x="669.2524" y="87.2969"/><text fill="#000000" font-family="sans-serif" font-size="14" lengthAdjust="spacing" textLength="187.0928" x="676.2524" y="107.292">AnalyticsCalculatorFactory</text></g><g class="participant participant-tail" data-participant="F"><rect fill="#E2E2F0" height="30.2969" rx="2.5" ry="2.5" style="stroke:#181818;stroke-width:0.5;" width="201.0928" x="669.2524" y="840"/><text fill="#000000" font-family="sans-serif" font-size="14" lengthAdjust="spacing" textLength="187.0928" x="676.2524" y="859.9951">AnalyticsCalculatorFactory</text></g><g class="participant participant-head" data-participant="CalcIdeas"><rect fill="#E2E2F0" height="30.2969" rx="2.5" ry="2.5" style="stroke:#181818;stroke-width:0.5;" width="196.8682" x="880.3452" y="87.2969"/><text fill="#000000" font-family="sans-serif" font-size="14" lengthAdjust="spacing" textLength="182.8682" x="887.3452" y="107.292">IdeasGeneratedCalculator</text></g><g class="participant participant-tail" data-participant="CalcIdeas"><rect fill="#E2E2F0" height="30.2969" rx="2.5" ry="2.5" style="stroke:#181818;stroke-width:0.5;" width="196.8682" x="880.3452" y="840"/><text fill="#000000" font-family="sans-serif" font-size="14" lengthAdjust="spacing" textLength="182.8682" x="887.3452" y="859.9951">IdeasGeneratedCalculator</text></g><g class="participant participant-head" data-participant="CalcTime"><rect fill="#E2E2F0" height="30.2969" rx="2.5" ry="2.5" style="stroke:#181818;stroke-width:0.5;" width="160.5352" x="1087.2134" y="87.2969"/><text fill="#000000" font-family="sans-serif" font-size="14" lengthAdjust="spacing" textLength="146.5352" x="1094.2134" y="107.292">TimeSpentCalculator</text></g><g class="participant participant-tail" data-participant="CalcTime"><rect fill="#E2E2F0" height="30.2969" rx="2.5" ry="2.5" style="stroke:#181818;stroke-width:0.5;" width="160.5352" x="1087.2134" y="840"/><text fill="#000000" font-family="sans-serif" font-size="14" lengthAdjust="spacing" textLength="146.5352" x="1094.2134" y="859.9951">TimeSpentCalculator</text></g><g class="participant participant-head" data-participant="CalcReflection"><rect fill="#E2E2F0" height="30.2969" rx="2.5" ry="2.5" style="stroke:#181818;stroke-width:0.5;" width="228.0332" x="1257.7485" y="87.2969"/><text fill="#000000" font-family="sans-serif" font-size="14" lengthAdjust="spacing" textLength="214.0332" x="1264.7485" y="107.292">ReflectionSubmittedCalculator</text></g><g class="participant participant-tail" data-participant="CalcReflection"><rect fill="#E2E2F0" height="30.2969" rx="2.5" ry="2.5" style="stroke:#181818;stroke-width:0.5;" width="228.0332" x="1257.7485" y="840"/><text fill="#000000" font-family="sans-serif" font-size="14" lengthAdjust="spacing" textLength="214.0332" x="1264.7485" y="859.9951">ReflectionSubmittedCalculator</text></g><g class="participant participant-head" data-participant="SA"><rect fill="#E2E2F0" height="30.2969" rx="2.5" ry="2.5" style="stroke:#181818;stroke-width:0.5;" width="132.6855" x="1495.7817" y="87.2969"/><text fill="#000000" font-family="sans-serif" font-size="14" lengthAdjust="spacing" textLength="118.6855" x="1502.7817" y="107.292">StudentAnalytics</text></g><g class="participant participant-tail" data-participant="SA"><rect fill="#E2E2F0" height="30.2969" rx="2.5" ry="2.5" style="stroke:#181818;stroke-width:0.5;" width="132.6855" x="1495.7817" y="840"/><text fill="#000000" font-family="sans-serif" font-size="14" lengthAdjust="spacing" textLength="118.6855" x="1502.7817" y="859.9951">StudentAnalytics</text></g><g class="message" data-participant-1="InvenRA" data-participant-2="C"><polygon fill="#181818" points="248.0005,160.8594,258.0005,164.8594,248.0005,168.8594,252.0005,164.8594" style="stroke:#181818;stroke-width:1;"/><line style="stroke:#181818;stroke-width:1;" x1="39.8452" x2="254.0005" y1="164.8594" y2="164.8594"/><text fill="#000000" font-family="sans-serif" font-size="13" lengthAdjust="spacing" textLength="176.4775" x="46.8452" y="144.6606">POST /analytics-mindscape</text><text fill="#000000" font-family="sans-serif" font-size="13" lengthAdjust="spacing" textLength="86.5693" x="46.8452" y="159.7935">{ activityID }</text></g><g class="message" data-participant-1="C" data-participant-2="S"><polygon fill="#181818" points="493.9082,189.9922,503.9082,193.9922,493.9082,197.9922,497.9082,193.9922" style="stroke:#181818;stroke-width:1;"/><line style="stroke:#181818;stroke-width:1;" x1="260.0005" x2="499.9082" y1="193.9922" y2="193.9922"/><text fill="#000000" font-family="sans-serif" font-size="13" lengthAdjust="spacing" textLength="221.9077" x="267.0005" y="188.9263">getAnalyticsForActivity(activityID)</text></g><g class="message" data-participant-1="S" data-participant-2="SA"><polygon fill="#181818" points="1550.1245,234.2578,1560.1245,238.2578,1550.1245,242.2578,1554.1245,238.2578" style="stroke:#181818;stroke-width:1;"/><line style="stroke:#181818;stroke-width:1;" x1="505.9082" x2="1556.1245" y1="238.2578" y2="238.2578"/><text fill="#000000" font-family="sans-serif" font-size="13" lengthAdjust="spacing" textLength="208.0063" x="512.9082" y="218.0591">obter todos os StudentAnalytics</text><text fill="#000000" font-family="sans-serif" font-size="13" lengthAdjust="spacing" textLength="95.4243" x="512.9082" y="233.1919">para activityID</text></g><g class="message" data-participant-1="SA" data-participant-2="S"><polygon fill="#181818" points="516.9082,263.3906,506.9082,267.3906,516.9082,271.3906,512.9082,267.3906" style="stroke:#181818;stroke-width:1;"/><line style="stroke:#181818;stroke-width:1;stroke-dasharray:2,2;" x1="510.9082" x2="1561.1245" y1="267.3906" y2="267.3906"/><text fill="#000000" font-family="sans-serif" font-size="13" lengthAdjust="spacing" textLength="161.7827" x="522.9082" y="262.3247">lista de StudentAnalytics</text></g><path d="M411.2505,282.3906 L487.8745,282.3906 L487.8745,289.5234 L477.8745,299.5234 L411.2505,299.5234 L411.2505,282.3906" fill="#EEEEEE" style="stroke:#000000;stroke-width:1.5;"/><rect fill="none" height="468.2109" style="stroke:#000000;stroke-width:1.5;" width="1104.5313" x="411.2505" y="282.3906"/><text fill="#000000" font-family="sans-serif" font-size="13" font-weight="bold" lengthAdjust="spacing" textLength="31.624" x="426.2505" y="295.4575">loop</text><text fill="#000000" font-family="sans-serif" font-size="11" font-weight="bold" lengthAdjust="spacing" textLength="199.1387" x="502.8745" y="294.6011">[para cada StudentAnalytics sa]</text><path d="M421.2505,306.5234 L497.8745,306.5234 L497.8745,313.6563 L487.8745,323.6563 L421.2505,323.6563 L421.2505,306.5234" fill="#EEEEEE" style="stroke:#000000;stroke-width:1.5;"/><rect fill="none" height="379.8125" style="stroke:#000000;stroke-width:1.5;" width="1084.5313" x="421.2505" y="306.5234"/><text fill="#000000" font-family="sans-serif" font-size="13" font-weight="bold" lengthAdjust="spacing" textLength="31.624" x="436.2505" y="319.5903">loop</text><text fill="#000000" font-family="sans-serif" font-size="11" font-weight="bold" lengthAdjust="spacing" textLength="133.1226" x="512.8745" y="318.7339">[para cada metricKey</text><text fill="#000000" font-family="sans-serif" font-size="11" font-weight="bold" lengthAdjust="spacing" textLength="318.2427" x="512.8745" y="331.5386">(ideasGenerated, timeSpent, reflectionSubmitted)]</text><g class="message" data-participant-1="S" data-participant-2="F"><polygon fill="#181818" points="757.7988,351.3984,767.7988,355.3984,757.7988,359.3984,761.7988,355.3984" style="stroke:#181818;stroke-width:1;"/><line style="stroke:#181818;stroke-width:1;" x1="505.9082" x2="763.7988" y1="355.3984" y2="355.3984"/><text fill="#000000" font-family="sans-serif" font-size="13" lengthAdjust="spacing" textLength="117.7744" x="512.9082" y="350.3325">create(metricKey)</text></g><path d="M431.2505,370.3984 L495.6934,370.3984 L495.6934,377.5313 L485.6934,387.5313 L431.2505,387.5313 L431.2505,370.3984" fill="#EEEEEE" style="stroke:#000000;stroke-width:1.5;"/><rect fill="none" height="308.9375" style="stroke:#000000;stroke-width:1.5;" width="1064.5313" x="431.2505" y="370.3984"/><text fill="#000000" font-family="sans-serif" font-size="13" font-weight="bold" lengthAdjust="spacing" textLength="19.4429" x="446.2505" y="383.4653">alt</text><text fill="#000000" font-family="sans-serif" font-size="11" font-weight="bold" lengthAdjust="spacing" textLength="208.957" x="510.6934" y="382.6089">[metricKey == "ideasGenerated"]</text><g class="message" data-participant-1="F" data-participant-2="S"><polygon fill="#181818" points="516.9082,404.6641,506.9082,408.6641,516.9082,412.6641,512.9082,408.6641" style="stroke:#181818;stroke-width:1;"/><line style="stroke:#181818;stroke-width:1;stroke-dasharray:2,2;" x1="510.9082" x2="768.7988" y1="408.6641" y2="408.6641"/><text fill="#000000" font-family="sans-serif" font-size="13" lengthAdjust="spacing" textLength="210.9517" x="522.9082" y="403.5981">new IdeasGeneratedCalculator()</text></g><g class="message" data-participant-1="S" data-participant-2="CalcIdeas"><polygon fill="#181818" points="966.7793,433.7969,976.7793,437.7969,966.7793,441.7969,970.7793,437.7969" style="stroke:#181818;stroke-width:1;"/><line style="stroke:#181818;stroke-width:1;" x1="505.9082" x2="972.7793" y1="437.7969" y2="437.7969"/><text fill="#000000" font-family="sans-serif" font-size="13" lengthAdjust="spacing" textLength="83.6685" x="512.9082" y="432.731">calculate(sa)</text></g><g class="message" data-participant-1="CalcIdeas" data-participant-2="S"><polygon fill="#181818" points="516.9082,462.9297,506.9082,466.9297,516.9082,470.9297,512.9082,466.9297" style="stroke:#181818;stroke-width:1;"/><line style="stroke:#181818;stroke-width:1;stroke-dasharray:2,2;" x1="510.9082" x2="977.7793" y1="466.9297" y2="466.9297"/><text fill="#000000" font-family="sans-serif" font-size="13" lengthAdjust="spacing" textLength="230.7183" x="522.9082" y="461.8638">AnalyticItem("Ideas generated", ...)</text></g><line style="stroke:#000000;stroke-width:1;stroke-dasharray:2,2;" x1="431.2505" x2="1495.7817" y1="475.9297" y2="475.9297"/><text fill="#000000" font-family="sans-serif" font-size="11" font-weight="bold" lengthAdjust="spacing" textLength="174.958" x="436.2505" y="486.1401">[metricKey == "timeSpent"]</text><g class="message" data-participant-1="F" data-participant-2="S"><polygon fill="#181818" points="516.9082,506.8672,506.9082,510.8672,516.9082,514.8672,512.9082,510.8672" style="stroke:#181818;stroke-width:1;"/><line style="stroke:#181818;stroke-width:1;stroke-dasharray:2,2;" x1="510.9082" x2="768.7988" y1="510.8672" y2="510.8672"/><text fill="#000000" font-family="sans-serif" font-size="13" lengthAdjust="spacing" textLength="177.2139" x="522.9082" y="505.8013">new TimeSpentCalculator()</text></g><g class="message" data-participant-1="S" data-participant-2="CalcTime"><polygon fill="#181818" points="1155.481,536,1165.481,540,1155.481,544,1159.481,540" style="stroke:#181818;stroke-width:1;"/><line style="stroke:#181818;stroke-width:1;" x1="505.9082" x2="1161.481" y1="540" y2="540"/><text fill="#000000" font-family="sans-serif" font-size="13" lengthAdjust="spacing" textLength="83.6685" x="512.9082" y="534.9341">calculate(sa)</text></g><g class="message" data-participant-1="CalcTime" data-participant-2="S"><polygon fill="#181818" points="516.9082,565.1328,506.9082,569.1328,516.9082,573.1328,512.9082,569.1328" style="stroke:#181818;stroke-width:1;"/><line style="stroke:#181818;stroke-width:1;stroke-dasharray:2,2;" x1="510.9082" x2="1166.481" y1="569.1328" y2="569.1328"/><text fill="#000000" font-family="sans-serif" font-size="13" lengthAdjust="spacing" textLength="264.7354" x="522.9082" y="564.0669">AnalyticItem("Time spent (seconds)", ...)</text></g><line style="stroke:#000000;stroke-width:1;stroke-dasharray:2,2;" x1="431.2505" x2="1495.7817" y1="578.1328" y2="578.1328"/><text fill="#000000" font-family="sans-serif" font-size="11" font-weight="bold" lengthAdjust="spacing" textLength="235.2109" x="436.2505" y="588.3433">[metricKey == "reflectionSubmitted"]</text><g class="message" data-participant-1="F" data-participant-2="S"><polygon fill="#181818" points="516.9082,609.0703,506.9082,613.0703,516.9082,617.0703,512.9082,613.0703" style="stroke:#181818;stroke-width:1;"/><line style="stroke:#181818;stroke-width:1;stroke-dasharray:2,2;" x1="510.9082" x2="768.7988" y1="613.0703" y2="613.0703"/><text fill="#000000" font-family="sans-serif" font-size="13" lengthAdjust="spacing" textLength="239.8906" x="522.9082" y="608.0044">new ReflectionSubmittedCalculator()</text></g><g class="message" data-participant-1="S" data-participant-2="CalcReflection"><polygon fill="#181818" points="1359.7651,638.2031,1369.7651,642.2031,1359.7651,646.2031,1363.7651,642.2031" style="stroke:#181818;stroke-width:1;"/><line style="stroke:#181818;stroke-width:1;" x1="505.9082" x2="1365.7651" y1="642.2031" y2="642.2031"/><text fill="#000000" font-family="sans-serif" font-size="13" lengthAdjust="spacing" textLength="83.6685" x="512.9082" y="637.1372">calculate(sa)</text></g><g class="message" data-participant-1="CalcReflection" data-participant-2="S"><polygon fill="#181818" points="516.9082,667.3359,506.9082,671.3359,516.9082,675.3359,512.9082,671.3359" style="stroke:#181818;stroke-width:1;"/><line style="stroke:#181818;stroke-width:1;stroke-dasharray:2,2;" x1="510.9082" x2="1370.7651" y1="671.3359" y2="671.3359"/><text fill="#000000" font-family="sans-serif" font-size="13" lengthAdjust="spacing" textLength="260" x="522.9082" y="666.27">AnalyticItem("Reflection submitted", ...)</text></g><g class="message" data-participant-1="S" data-participant-2="S"><line style="stroke:#181818;stroke-width:1;" x1="505.9082" x2="547.9082" y1="729.6016" y2="729.6016"/><line style="stroke:#181818;stroke-width:1;" x1="547.9082" x2="547.9082" y1="729.6016" y2="742.6016"/><line style="stroke:#181818;stroke-width:1;" x1="506.9082" x2="547.9082" y1="742.6016" y2="742.6016"/><polygon fill="#181818" points="516.9082,738.6016,506.9082,742.6016,516.9082,746.6016,512.9082,742.6016" style="stroke:#181818;stroke-width:1;"/><text fill="#000000" font-family="sans-serif" font-size="13" lengthAdjust="spacing" textLength="213.5288" x="512.9082" y="709.4028">construir AnalyticsResponseItem</text><text fill="#000000" font-family="sans-serif" font-size="13" lengthAdjust="spacing" textLength="95.1641" x="512.9082" y="724.5356">(quant + qual)</text></g><g class="message" data-participant-1="S" data-participant-2="C"><polygon fill="#181818" points="271.0005,774.7344,261.0005,778.7344,271.0005,782.7344,267.0005,778.7344" style="stroke:#181818;stroke-width:1;"/><line style="stroke:#181818;stroke-width:1;stroke-dasharray:2,2;" x1="265.0005" x2="504.9082" y1="778.7344" y2="778.7344"/><text fill="#000000" font-family="sans-serif" font-size="13" lengthAdjust="spacing" textLength="196.1553" x="277.0005" y="773.6685">List&lt;AnalyticsResponseItem&gt;</text></g><g class="message" data-participant-1="C" data-participant-2="InvenRA"><polygon fill="#181818" points="50.8452,819,40.8452,823,50.8452,827,46.8452,823" style="stroke:#181818;stroke-width:1;"/><line style="stroke:#181818;stroke-width:1;stroke-dasharray:2,2;" x1="44.8452" x2="259.0005" y1="823" y2="823"/><text fill="#000000" font-family="sans-serif" font-size="13" lengthAdjust="spacing" textLength="196.1553" x="56.8452" y="802.8013">List&lt;AnalyticsResponseItem&gt;</text><text fill="#000000" font-family="sans-serif" font-size="13" lengthAdjust="spacing" textLength="42.1865" x="56.8452" y="817.9341">(JSON)</text></g><!--SRC=[XLLDJzj04BtlhvZcWgsILBGzeO8KfKgLjXGKS-GoiIUmghrhl1jGLFM_5FM0-1t-OvtT-2DEJ2eX8MlVp7lpTjx6_9Ggnm8pC7UOw4UfRc69gI4XhBGfGKJtAr8nmH0k5vPK-Lp-rP0GeC9qRMLi8DOPJ36skbZ31TaxdGZXFs4mKm-atip70q03_cC-5ip7TJ97PM5m8LLYOinfefKjT9fIuS6JBcnSiqLKFCYOF2Pw1JF1D5wbo0egMHuzxQ9d2Q7vGeeAj9Iq9Hjs_lI0Risrp2ZAITaUk3lhekUqJ2csKgjejSYaxQTfKTtgoAuIPcg6samy5k88JaAueaGcV0y8jSMYiXU6vp21KxYwZAxXNNDBmwms-aRz0hP5FaYxdds6tsBYIY8kkQMMRggBSGKAMdJewD-7u6-XVDQW5xPyoM1NB2-8CGZewX9CI4IUOymaN445M9re0_otMtdZrt5BeE2gOIKmbSQYMxxTAYVh0xlYIcDaLyWmWdsaqMWaKgrpo9kpFR461G0t69rijyZA5rl86E5-nOsaTSEWQmUmqp0Z1_n6wniLoCvQ7OEjL-OOYlrzO3y177StFwSyOqgttBwGk4cSGbYMJmido9TuGwViILmGCmMDXj0VOsfRMN1s1eEki8570NUelLNq2Azb8WWhk6Tjmk7OAmm51cjGUrxthgsUMSg2JV9usMefny2kReg9NvuTtOs1_P9x8hclre4EYFN7_LhzaN7z8J0KQyvG-1_1FTVSB_tW-x0_H0i_CCeMg7-WBO1fv6qFf1AtazK_5uhjk6F2xvDMFXFf9XASOV9xsX2PEPbSAqEEKLGJE2Lidx75IXRzK4wFZngyzUr3uKKSmSSGFCnbVocv4b2xNjNF1TENVzfdCFA3knVmExyMdtgPpjsRnwZwoJo8PLbVeyiVuJy0]--></g></svg>